<svg xmlns="http://www.w3.org/2000/svg" viewBox="0 0 322.97 303.42">
<path fill="#557153" d="M280.39,0H190.5c-23.48,0-42.58,19.1-42.58,42.58v49.53H69.94C31.38,92.11,0,123.48,0,162.05v86.44h0v12.35h0
	c0,23.48,19.1,42.58,42.58,42.58h89.89c23.48,0,42.58-19.1,42.58-42.58v-49.53h77.98c38.57,0,69.94-31.38,69.94-69.94V54.93V42.58
	C322.97,19.1,303.87,0,280.39,0z M147.93,260.84c0,8.52-6.94,15.46-15.46,15.46H42.58c-8.52,0-15.46-6.93-15.46-15.46v-12.35
	c0-20.5,16.68-37.18,37.18-37.18h83.63V260.84z M295.85,141.37c0,23.61-19.21,42.82-42.82,42.82h-77.98H64.3
	c-1.54,0-3.07,0.07-4.58,0.18c-0.35,0.02-0.69,0.05-1.03,0.08c-1.48,0.13-2.95,0.3-4.41,0.53c-0.19,0.03-0.38,0.07-0.57,0.1
	c-1.32,0.22-2.63,0.49-3.93,0.79c-0.3,0.07-0.6,0.13-0.9,0.21c-1.4,0.35-2.79,0.74-4.16,1.18c-0.26,0.08-0.52,0.18-0.78,0.27
	c-1.22,0.41-2.43,0.85-3.62,1.33c-0.22,0.09-0.45,0.17-0.67,0.27c-1.32,0.55-2.61,1.14-3.88,1.78c-0.28,0.14-0.57,0.29-0.85,0.43
	c-1.19,0.61-2.36,1.26-3.51,1.94c-0.11,0.06-0.22,0.12-0.32,0.18c-1.22,0.74-2.4,1.52-3.56,2.34c-0.14,0.09-0.28,0.18-0.41,0.27
	v-34.01c0-23.61,19.21-42.82,42.82-42.82h77.98h110.75c1.54,0,3.07-0.07,4.58-0.18c0.35-0.02,0.69-0.05,1.03-0.08
	c1.48-0.13,2.96-0.3,4.41-0.53c0.19-0.03,0.38-0.07,0.56-0.1c1.32-0.22,2.63-0.49,3.93-0.79c0.3-0.07,0.6-0.13,0.9-0.21
	c1.4-0.35,2.79-0.74,4.15-1.17c0.27-0.09,0.53-0.18,0.79-0.27c1.22-0.41,2.42-0.85,3.61-1.33c0.22-0.09,0.45-0.17,0.68-0.27
	c1.32-0.55,2.61-1.14,3.88-1.78c0.28-0.14,0.56-0.29,0.84-0.43c1.2-0.62,2.38-1.27,3.54-1.96c0.1-0.06,0.2-0.11,0.29-0.17
	c1.23-0.74,2.42-1.53,3.59-2.35c0.13-0.09,0.27-0.17,0.4-0.26V141.37z M258.67,92.11h-83.63V42.58c0-8.52,6.93-15.46,15.46-15.46
	h89.89c8.53,0,15.46,6.93,15.46,15.46v12.35C295.85,75.43,279.17,92.11,258.67,92.11z"/>
</svg>
